<svg width="18" height="20" viewBox="0 0 18 20" fill="none" xmlns="http://www.w3.org/2000/svg">
<path d="M17.7263 17.6698L13.289 12.9629C14.4299 11.5796 15.055 9.83922 15.055 8.02735C15.055 3.79411 11.6781 0.349976 7.52751 0.349976C3.37691 0.349976 -3.8147e-06 3.79411 -3.8147e-06 8.02735C-3.8147e-06 12.2606 3.37691 15.7047 7.52751 15.7047C9.08571 15.7047 10.5706 15.2254 11.8401 14.3155L16.3111 19.0581C16.498 19.256 16.7494 19.3652 17.0187 19.3652C17.2737 19.3652 17.5155 19.266 17.6992 19.0858C18.0893 18.7029 18.1017 18.068 17.7263 17.6698ZM7.52751 2.35277C10.5955 2.35277 13.0913 4.89832 13.0913 8.02735C13.0913 11.1564 10.5955 13.7019 7.52751 13.7019C4.45956 13.7019 1.9637 11.1564 1.9637 8.02735C1.9637 4.89832 4.45956 2.35277 7.52751 2.35277Z" fill="white"/>
</svg>
